# AST/ASF file generated using VICON BodyLanguage
# -----------------------------------------------
:version 1.10
:name VICON
:units
  mass 1.0
  length 0.45
  angle deg
:documentation
   .ast/.asf automatically generated from VICON data using
   VICON BodyBuilder and BodyLanguage model FoxedUp or BRILLIANT.MOD
:root
   order TX TY TZ RX RY RZ
   axis XYZ
   position 0 0 0  
   orientation 0 0 0 
:bonedata
  begin
     id 1 
     name lhipjoint
     direction 0.707368 -0.647095 0.284426 
     length 2.60678 
     axis 0 0 0  XYZ
  end
  begin
     id 2 
     name lfemur
     direction 0.34202 -0.939693 0  
     length 6.63812  
     axis 0 0 20  XYZ
    dof rx ry rz
    limits (-160.0 20.0)
           (-70.0 70.0)
           (-60.0 70.0)
  end
  begin
     id 3 
     name ltibia
     direction 0.34202 -0.939693 0   
     length 7.51178   
     axis 0 0 20   XYZ
    dof rx
    limits (-10.0 170.0)
  end
  begin
     id 4 
     name lfoot
     direction 0.121251 -0.333133 0.935051   
     length 1.83716   
     axis -90 7.62852e-016 20   XYZ
    dof rx rz
    limits (-45.0 90.0)
           (-70.0 20.0)
  end
  begin
     id 5 
     name ltoes
     direction 1.53611e-011 -4.21962e-011 1   
     length 0.916133   
     axis -90 7.62852e-016 20   XYZ
    dof rx
    limits (-90.0 20.0)
  end
  begin
     id 6 
     name rhipjoint
     direction -0.692419 -0.660507 0.290321   
     length 2.55385  
     axis 0 0 0  XYZ 
  end
  begin
     id 7 
     name rfemur
     direction -0.34202 -0.939693 0   
     length 7.29079   
     axis 0 0 -20   XYZ
    dof rx ry rz
    limits (-160.0 20.0)
           (-70.0 70.0)
           (-70.0 60.0)
  end
  begin
     id 8 
     name rtibia
     direction -0.34202 -0.939693 0   
     length 7.47143   
     axis 0 0 -20   XYZ
    dof rx
    limits (-10.0 170.0)
 end
 begin
     id 9 
     name rfoot
     direction -0.119907 -0.329441 0.936532   
     length 1.79439  
     axis -90 -7.62852e-016 -20   XYZ
    dof rx rz
    limits (-45.0 90.0)
           (-20.0 70.0)
  end
  begin
     id 10 
     name rtoes
     direction -1.53571e-011 -4.21961e-011 1   
     length 0.896039   
     axis -90 -7.62852e-016 -20   XYZ
    dof rx
    limits (-90.0 20.0)
  end
  begin
     id 11 
     name lowerback
     direction 0.0367721 0.992912 -0.113016   
     length 1.73542   
     axis 0 0 0   XYZ
    dof rx ry rz
    limits (-20.0 45.0)
           (-30.0 30.0)
           (-30.0 30.0)
  end
  begin
     id 12 
     name upperback
     direction -0.000314626 0.990678 0.136227   
     length 1.7514   
     axis 0 0 0   XYZ
    dof rx ry rz
    limits (-20.0 45.0)
           (-30.0 30.0)
           (-30.0 30.0)
  end
  begin
     id 13 
     name thorax
     direction -0.0226159 0.981151 0.191917   
     length 1.71471   
     axis 0 0 0   XYZ
    dof rx ry rz
    limits (-20.0 45.0)
           (-30.0 30.0)
           (-30.0 30.0)
  end
  begin
     id 14 
     name lowerneck
     direction 0.0219333 0.998071 0.0580739   
     length 1.65882   
     axis 0 0 0   XYZ
    dof rx ry rz
    limits (-20.0 45.0)
           (-30.0 30.0)
           (-30.0 30.0)
  end
  begin
     id 15 
     name upperneck
     direction 0.0384529 0.980058 -0.194957   
     length 1.6612   
     axis 0 0 0   XYZ
    dof rx ry rz
    limits (-20.0 45.0)
           (-30.0 30.0)
           (-30.0 30.0)
  end
  begin
     id 16
     name head
     direction 0.00592123 0.997421 -0.0715234  
     length 1.68077  
     axis 0 0 0   XYZ
    dof rx ry rz
    limits (-20.0 45.0)
           (-30.0 30.0)
           (-30.0 30.0)
  end
  begin
     id 17 
     name lclavicle
     direction 0.904803 0.417826 0.0821728  
     length 3.42227  
     axis 0 0 0   XYZ
    dof ry rz
    limits (-20.0 10.0)
           (0.0 20.0)
  end
  begin
     id 18 
     name lhumerus
     direction 1 -4.48965e-011 -2.68786e-027   
     length 5.11878   
     axis -180 -30 -90   XYZ
    dof rx ry rz
    limits (-60.0 90.0)
           (-90.0 90.0)
           (-90.0 90.0)
  end
  begin
     id 19
     name lradius
     direction 1 -4.48965e-011 2.61168e-028   
     length 3.59971   
     axis -180 -30 -90   XYZ
    dof rx
    limits (-10.0 170.0)
  end
  begin
     id 20
     name lwrist
     direction 1 -4.48965e-011 1.58672e-027   
     length 1.79985   
     axis -1.65735e-015 90 90   XYZ
    dof ry
    limits (-180.0 0.0)
 end
  begin
     id 21 
     name lhand
     direction 1 -4.48942e-011 3.17344e-027   
     length 0.62877   
     axis -2.02492e-015 90 90   XYZ
    dof rx rz
    limits (-90.0 90.0)
           (-45.0 45.0)
  end
  begin
     id 22 
     name lfingers
     direction 1 -4.49011e-011 6.34687e-027   
     length 0.506931   
     axis -4.04985e-015 90 90   XYZ
    dof rx
    limits (0.0 90.0)
  end
  begin
     id 23
     name lthumb
     direction 0.707107 -6.34982e-011 0.707107   
     length 0.727854   
     axis -90 45 2.85299e-015   XYZ
    dof rx rz
    limits (-45.0 45.0)
           (-45.0 45.0)
  end
  begin
     id 24 
     name rclavicle
     direction -0.945647 0.32488 0.0143075   
     length 3.52737  
     axis 0 0 0   XYZ 
    dof ry rz
    limits (-10.0 20.0)
           (-20.0 0.0)
  end
  begin
     id 25 
     name rhumerus
     direction -1 -4.48962e-011 1.92182e-027  
     length 5.4902   
     axis -180 30 90   XYZ
    dof rx ry rz
    limits (-90.0 60.0)
           (-90.0 90.0)
           (-90.0 90.0)
  end
  begin
     id 26 
     name rradius
     direction -1 -4.48967e-011 -5.97193e-028   
     length 3.20659   
     axis -180 30 90   XYZ
    dof rx
    limits (-10.0 170.0)
  end
  begin
     id 27 
     name rwrist
     direction -1 -4.48964e-011 1.58672e-027   
     length 1.6033   
     axis -1.65735e-015 -90 -90   XYZ
    dof ry
    limits (-180.0 0.0)
  end
  begin
     id 28
     name rhand
     direction -1 -4.49006e-011 3.17344e-027   
     length 0.691885   
     axis -2.02492e-015 -90 -90   XYZ
    dof rx rz
    limits (-90.0 90.0)
           (-45.0 45.0)
  end
  begin
     id 29
     name rfingers
     direction -1 -4.48908e-011 6.34687e-027   
     length 0.557815   
     axis -4.04985e-015 -90 -90   XYZ
    dof rx
    limits (0.0 90.0)
  end
  begin
     id 30
     name rthumb
     direction -0.707107 -6.34999e-011 0.707107   
     length 0.800915   
     axis -90 -45 -2.85299e-015   XYZ
    dof rx rz
    limits (-45.0 45.0)
           (-45.0 45.0)
  end
:hierarchy
  begin
    root lhipjoint rhipjoint lowerback
    lhipjoint lfemur
    lfemur ltibia
    ltibia lfoot
    lfoot ltoes
    rhipjoint rfemur
    rfemur rtibia
    rtibia rfoot
    rfoot rtoes
    lowerback upperback
    upperback thorax
    thorax lowerneck lclavicle rclavicle
    lowerneck upperneck
    upperneck head
    lclavicle lhumerus
    lhumerus lradius
    lradius lwrist
    lwrist lhand lthumb
    lhand lfingers
    rclavicle rhumerus
    rhumerus rradius
    rradius rwrist
    rwrist rhand rthumb
    rhand rfingers
  end

#!OML:ASF I:\Actors\actors\Patient Classification 1\Patient 1\Session 1\Subject1.ASF
:FULLY-SPECIFIED
:DEGREES
1
root -0.0509398 17.4136 8.30804 8.8267 -0.796469 -10.0748
lowerback 0.0308294 0.155224 5.47736
upperback -8.42101 0.729535 3.47216
thorax -8.89673 0.10539 0.564173
lowerneck -2.9018 -13.5168 -11.2994
upperneck 16.7369 -19.1784 8.63852
head 7.55222 -9.39323 2.8682
rclavicle 8.19987e-015 2.26615e-014
rhumerus -45.2612 -27.2841 -67.6455
rradius 25.3093
rwrist 40.3552
rhand -1.90435 -32.0538
rfingers 7.12502
rthumb 23.7651 -60.6042
lclavicle 8.19987e-015 2.26615e-014
lhumerus -44.611 20.1897 79.1934
lradius 23.1743
lwrist -40.5484
lhand -7.82919 -15.3272
lfingers 7.12502
lthumb 18.0732 13.8531
rfemur -4.38735 24.68 24.7726
rtibia 3.38576
rfoot -13.0773 -24.889
rtoes -1.89949
lfemur 4.70849 -43.0829 -8.76282
ltibia -4.34027
lfoot -25.9661 53.4853
ltoes 15.1044
2
root -0.0493244 17.4127 8.31031 8.79531 -0.815594 -10.0016
lowerback 0.115303 0.154832 5.42308
upperback -8.44466 0.733257 3.44887
thorax -8.97233 0.108685 0.569984
lowerneck -2.89991 -13.5547 -11.224
upperneck 16.8025 -19.2161 8.49107
head 7.55482 -9.41659 2.80649
rclavicle 1.07592e-014 3.47873e-015
rhumerus -45.3088 -27.1841 -67.7026
rradius 25.3806
rwrist 40.2792
rhand -1.70042 -32.1212
rfingers 7.12502
rthumb 23.9607 -60.646
lclavicle 1.07592e-014 3.47873e-015
lhumerus -44.5044 19.6132 79.7006
lradius 23.069
lwrist -38.8099
lhand -9.04346 -15.1228
lfingers 7.12502
lthumb 16.9046 14.1615
rfemur -4.30971 24.6697 24.7039
rtibia 3.33912
rfoot -13.0743 -24.8637
rtoes -1.71395
lfemur 4.7874 -43.2122 -8.96015
ltibia -4.25898
lfoot -26.375 53.5033
ltoes 15.3704
3
root -0.0471022 17.4129 8.31052 8.79643 -0.821055 -9.94254
lowerback 0.156785 0.157243 5.39923
upperback -8.449 0.737702 3.42994
thorax -9.00114 0.111262 0.562954
lowerneck -2.69288 -13.5269 -11.2049
upperneck 16.6404 -19.1882 8.52566
head 7.46448 -9.40994 2.83807
rclavicle -2.75814e-015 9.74045e-015
rhumerus -45.2963 -27.166 -67.7221
rradius 25.4101
rwrist 40.2932
rhand -1.52019 -32.0381
rfingers 7.12502
rthumb 24.1335 -60.5401
lclavicle -2.75814e-015 9.74045e-015
lhumerus -44.3377 19.0584 80.2408
lradius 22.9603
lwrist -37.1484
lhand -10.1812 -14.9016
lfingers 7.12502
lthumb 15.8091 14.4728
rfemur -4.31647 24.5774 24.6206
rtibia 3.34072
rfoot -13.0846 -24.7771
rtoes -1.64589
lfemur 4.79564 -43.2313 -9.05735
ltibia -4.24208
lfoot -26.5019 53.4864
ltoes 15.519
4
root -0.0455397 17.4136 8.30958 8.82882 -0.819869 -9.88716
lowerback 0.167489 0.153868 5.37404
upperback -8.45329 0.731862 3.41413
thorax -9.01202 0.109317 0.560692
lowerneck -2.53776 -13.4855 -11.211
upperneck 16.4417 -19.1442 8.63157
head 7.37935 -9.3906 2.89382
rclavicle 1.43125e-014 -1.3418e-014
rhumerus -45.2484 -27.1459 -67.7447
rradius 25.3969
rwrist 40.2971
rhand -1.35162 -31.8799
rfingers 7.12502
rthumb 24.2951 -60.3604
lclavicle 1.43125e-014 -1.3418e-014
lhumerus -44.1679 18.5574 80.7601
lradius 22.8585
lwrist -35.5091
lhand -11.3249 -14.7306
lfingers 7.12502
lthumb 14.7075 14.7277
rfemur -4.38617 24.4792 24.5247
rtibia 3.37614
rfoot -13.0745 -24.694
rtoes -1.71152
lfemur 4.73108 -43.2079 -9.08664
ltibia -4.23311
lfoot -26.4588 53.491
ltoes 15.4639
5
root -0.0481911 17.4175 8.31803 8.98174 -0.778867 -9.79177
lowerback -0.139703 0.181833 5.23948
upperback -8.48138 0.735216 3.3585
thorax -8.85946 0.120865 0.575783
lowerneck -2.32865 -13.4858 -11.1189
upperneck 16.2446 -19.1677 8.71748
head 7.28082 -9.40173 2.92592
rclavicle 2.91468e-014 -3.43897e-014
rhumerus -45.1832 -27.2136 -67.762
rradius 25.224
rwrist 39.9576
rhand -0.90286 -31.9803
rfingers 7.12502
rthumb 24.7253 -60.4025
lclavicle 2.91468e-014 -3.43897e-014
lhumerus -43.9351 17.8889 81.2783
lradius 22.5657
lwrist -33.8084
lhand -12.7865 -14.804
lfingers 7.12502
lthumb 13.299 14.7516
rfemur -4.49571 24.5004 24.3639
rtibia 3.29535
rfoot -13.0635 -24.7637
rtoes -0.767482
lfemur 4.52132 -43.3227 -9.07028
ltibia -4.18739
lfoot -26.5329 53.5828
ltoes 15.4558
